<svg xmlns="http://www.w3.org/2000/svg" width="52" height="52" viewBox="0 0 64 64">
  <circle cx="32" cy="30" r="22" fill="#e2e8f0" opacity="0.8" stroke="#94a3b8" stroke-width="2"/>
  <ellipse cx="14" cy="24" rx="6" ry="3" fill="#fff" stroke="#333" stroke-width="1.5" transform="rotate(-20 14 24)"/>
  <ellipse cx="50" cy="24" rx="6" ry="3" fill="#333" stroke="#333" stroke-width="1.5" transform="rotate(20 50 24)"/>
  <rect x="20" y="16" width="24" height="24" rx="10" fill="#ffffff" stroke="#333" stroke-width="1.5"/>
  <path d="M 20 22 C 24 16, 30 18, 30 24 C 30 28, 22 30, 20 26 Z" fill="#333"/>
  <circle cx="26" cy="24" r="2" fill="#333"/>
  <circle cx="38" cy="24" r="2" fill="#333"/>
  <ellipse cx="32" cy="32" rx="10" ry="7" fill="#f472b6" stroke="#333" stroke-width="1.5"/>
  <circle cx="28" cy="31" r="1.5" fill="#be185d"/>
  <circle cx="36" cy="31" r="1.5" fill="#be185d"/>
  <path d="M 16 22 A 18 18 0 0 1 28 12" fill="none" stroke="#ffffff" stroke-width="3" stroke-linecap="round"/>
  <path d="M 18 50 C 18 44, 46 44, 46 50" fill="none" stroke="#cbd5e1" stroke-width="6" stroke-linecap="round"/>
</svg>
